# Blender v3.1.2 OBJ File: ''
# www.blender.org
mtllib temp_tire_fr.mtl
o polygon0.001
v -1.358043 0.179338 0.939715
v -1.358043 0.270801 1.116025
v -1.436570 0.003028 1.116025
v -1.358043 0.179338 1.292335
v -1.358043 0.003028 1.383798
v -1.358043 -0.173282 1.292335
v -1.358043 -0.264745 1.116025
v -1.358043 -0.173282 0.939715
v -1.443723 0.230775 1.020681
v -1.443744 0.253913 1.115070
v -1.004508 0.000752 1.114450
v -1.443002 0.234169 1.210851
v -1.443053 0.177936 1.294855
v -0.883211 0.187173 0.925540
v -0.882419 0.265100 1.114938
v -1.002425 0.000752 1.114450
v -0.882917 0.185689 1.302832
v -0.882673 -0.002195 1.382680
v -1.443917 0.092225 1.346780
v -1.433826 0.110515 1.391470
v -1.433826 0.209335 1.325695
v -1.433826 0.302769 1.114450
v -1.433826 0.275109 1.002025
v -1.443957 0.092143 0.883573
v -1.444587 -0.001788 0.865008
v -1.433826 0.110515 0.837430
v -1.433826 -0.001910 0.811377
v -1.433826 0.275109 1.226876
v -1.443398 -0.001829 1.371248
v -1.433826 -0.001910 1.417523
v -1.442220 -0.184673 1.297873
v -1.442809 -0.098007 1.352003
v -1.433826 -0.213155 1.325695
v -1.433826 -0.114326 1.391469
v -1.439303 -0.265700 1.114938
v -1.442220 -0.241597 1.212355
v -1.433826 -0.306579 1.114450
v -1.433826 -0.278920 1.226875
v -1.442708 -0.182874 0.934055
v -1.443063 -0.237563 1.019410
v -1.433826 -0.213155 0.903205
v -1.433826 -0.278920 1.002024
v -1.443510 -0.096635 0.881449
v -1.433826 -0.114326 0.837430
v -1.442657 0.177977 0.935234
v -1.433826 0.209335 0.903205
v -1.358043 0.003028 0.848252
v -0.881809 -0.002144 0.853577
v -0.883171 -0.191410 0.925743
v -0.883638 -0.278625 1.114938
v -0.883527 -0.193300 1.305992
vt -1.504639 0.762451
vt -1.174072 0.762207
vt -1.286133 0.655762
vt -1.288330 0.875244
vt -1.504883 0.927979
vt -1.719116 0.873291
vt -1.829346 0.757446
vt -1.710449 0.648926
vt 0.889526 0.516357
vt 0.888306 0.549439
vt 0.919800 0.547241
vt 0.855591 0.547241
vt 0.827881 0.541016
vt -0.506836 0.769165
vt -0.508057 0.908814
vt -0.315552 0.867310
vt -0.699219 0.870483
vt -0.773193 0.774414
vt 0.017944 0.479126
vt 0.093140 0.552124
vt 0.017944 0.552124
vt 0.093140 0.479126
vt 0.017944 0.479126
vt 0.093140 0.552124
vt 0.017944 0.552124
vt 0.093140 0.479126
vt 0.017944 0.479126
vt 0.093140 0.552124
vt 0.017944 0.552124
vt 0.093140 0.479126
vt 0.017944 0.479126
vt 0.093140 0.552124
vt 0.017944 0.552124
vt 0.093140 0.479126
vt 0.017944 0.479126
vt 0.093140 0.552124
vt 0.017944 0.552124
vt 0.093140 0.479126
vt 0.017944 0.479126
vt 0.093140 0.552124
vt 0.017944 0.552124
vt 0.093140 0.479126
vt 0.017944 0.479126
vt 0.093140 0.552124
vt 0.017944 0.552124
vt 0.093140 0.479126
vt 0.017944 0.479126
vt 0.093140 0.552124
vt 0.017944 0.552124
vt 0.093140 0.479126
vt 0.017944 0.479126
vt 0.093140 0.552124
vt 0.017944 0.552124
vt 0.093140 0.479126
vt 0.017944 0.479126
vt 0.093140 0.552124
vt 0.017944 0.552124
vt 0.093140 0.479126
vt 0.017944 0.479126
vt 0.093140 0.552124
vt 0.017944 0.552124
vt 0.093140 0.479126
vt 0.017944 0.479126
vt 0.093140 0.552124
vt 0.017944 0.552124
vt 0.093140 0.479126
vt 0.017944 0.479126
vt 0.093140 0.552124
vt 0.017944 0.552124
vt 0.093140 0.479126
vt 0.017944 0.479126
vt 0.093140 0.552124
vt 0.017944 0.552124
vt 0.093140 0.479126
vt 0.017944 0.479126
vt 0.093140 0.552124
vt 0.017944 0.552124
vt 0.093140 0.479126
vt 0.017944 0.479126
vt 0.093140 0.552124
vt 0.017944 0.552124
vt 0.093140 0.479126
vt -1.505859 0.592896
vt 0.947632 0.540405
vt 0.968384 0.529541
vt 0.978760 0.516113
vt 0.974854 0.501587
vt 0.952148 0.489136
vt 0.920166 0.481690
vt 0.887940 0.479614
vt 0.852051 0.482666
vt 0.822144 0.491089
vt 0.804321 0.502685
vt 0.797363 0.517578
vt 0.810059 0.531006
vt -0.233032 0.767944
vt -0.302490 0.659424
vt -0.506592 0.614502
vt -0.717529 0.666016
vn -1.0000 -0.0000 -0.0000
vn -0.9596 0.2814 -0.0000
vn -0.9538 0.2124 -0.2124
vn -0.9538 0.2124 0.2124
vn -0.9596 -0.0000 0.2814
vn -0.9538 -0.2124 0.2124
vn -0.9596 -0.2814 -0.0000
vn -0.9538 -0.2124 -0.2124
vn -0.9999 -0.0099 0.0044
vn -0.9412 -0.3377 0.0093
vn -0.9321 -0.3362 0.1350
vn -0.9383 -0.3205 -0.1298
vn -0.9416 -0.2300 -0.2459
vn -0.9999 0.0097 -0.0038
vn -0.9106 0.4134 0.0025
vn -0.9122 0.2850 -0.2944
vn -0.9110 0.2919 0.2914
vn -0.9131 0.0042 0.4077
vn -0.9788 0.0807 0.1881
vn -0.9316 -0.1394 -0.3356
vn -0.9787 0.1452 0.1450
vn -0.9800 0.1989 -0.0003
vn -0.9797 0.1833 -0.0814
vn -0.9798 0.0787 -0.1837
vn -0.9349 -0.0056 0.3548
vn -0.9335 -0.1214 0.3373
vn -0.9804 0.0000 -0.1968
vn -0.9789 0.1874 0.0814
vn -0.9793 0.0001 0.2025
vn -0.9432 -0.0134 -0.3319
vn -0.9785 -0.1458 0.1457
vn -0.9384 0.1225 -0.3230
vn -0.9434 0.2298 -0.2391
vn -0.9786 -0.0811 0.1890
vn -0.9899 -0.1417 -0.0087
vn -0.9376 0.3165 -0.1442
vn -0.9375 0.3481 0.0011
vn -0.9787 -0.1882 0.0819
vn -0.9795 -0.1422 -0.1424
vn -0.9331 0.3207 0.1628
vn -0.9431 0.2313 0.2389
vn -0.9812 -0.1804 -0.0691
vn -0.9798 -0.0788 -0.1840
vn -0.9366 0.1155 0.3307
vn -0.9809 0.1381 -0.1369
vn -0.9415 -0.2351 0.2414
vn -0.9596 0.0000 -0.2814
vn -0.9077 -0.0010 -0.4197
vn -0.9142 -0.2755 -0.2972
vn -0.9203 -0.3913 -0.0027
vn -0.9166 -0.2768 0.2886
usemtl mat_tire_rim
s 1
f 3/1/1 2/2/2 1/3/3
f 4/4/4 2/2/2 3/1/1
f 5/5/5 4/4/4 3/1/1
f 3/1/1 6/6/6 5/5/5
f 7/7/7 6/6/6 3/1/1
f 8/8/8 7/7/7 3/1/1
f 11/9/9 10/10/10 9/11/11
f 12/12/12 10/10/10 11/9/9
f 13/13/13 12/12/12 11/9/9
f 16/14/14 15/15/15 14/16/16
f 17/17/17 15/15/15 16/14/14
f 18/18/18 17/17/17 16/14/14
f 20/19/19 13/20/13 19/21/20
f 21/22/21 13/20/13 20/19/19
f 22/23/22 9/24/11 10/25/10
f 23/26/23 9/24/11 22/23/22
f 26/27/24 25/28/25 24/29/26
f 27/30/27 25/28/25 26/27/24
f 21/31/21 12/32/12 13/33/13
f 28/34/28 12/32/12 21/31/21
f 30/35/29 19/36/20 29/37/30
f 20/38/19 19/36/20 30/35/29
f 33/39/31 32/40/32 31/41/33
f 34/42/34 32/40/32 33/39/31
f 37/43/35 36/44/36 35/45/37
f 38/46/38 36/44/36 37/43/35
f 41/47/39 40/48/40 39/49/41
f 42/50/42 40/48/40 41/47/39
f 44/51/43 39/52/41 43/53/44
f 41/54/39 39/52/41 44/51/43
f 46/55/45 24/56/26 45/57/46
f 26/58/24 24/56/26 46/55/45
f 23/59/23 45/60/46 9/61/11
f 46/62/45 45/60/46 23/59/23
f 28/63/28 10/64/10 12/65/12
f 22/66/22 10/64/10 28/63/28
f 27/67/27 43/68/44 25/69/25
f 44/70/43 43/68/44 27/67/27
f 34/71/34 29/72/30 32/73/32
f 30/74/29 29/72/30 34/71/34
f 38/75/38 31/76/33 36/77/36
f 33/78/31 31/76/33 38/75/38
f 42/79/42 35/80/37 40/81/40
f 37/82/35 35/80/37 42/79/42
f 47/83/47 3/1/1 1/3/3
f 8/8/8 3/1/1 47/83/47
f 45/84/46 11/9/9 9/11/11
f 24/85/26 11/9/9 45/84/46
f 25/86/25 11/9/9 24/85/26
f 43/87/44 11/9/9 25/86/25
f 39/88/41 11/9/9 43/87/44
f 40/89/40 11/9/9 39/88/41
f 35/90/37 11/9/9 40/89/40
f 36/91/36 11/9/9 35/90/37
f 31/92/33 11/9/9 36/91/36
f 32/93/32 11/9/9 31/92/33
f 29/94/30 11/9/9 32/93/32
f 19/95/20 11/9/9 29/94/30
f 48/96/48 16/14/14 14/16/16
f 49/97/49 16/14/14 48/96/48
f 50/98/50 16/14/14 49/97/49
f 51/99/51 16/14/14 50/98/50
f 19/95/20 13/13/13 11/9/9
f 51/99/51 18/18/18 16/14/14
o polygon1
v -0.937819 0.433403 1.114450
v -1.374006 0.433403 1.114450
v -0.937819 0.375077 0.896793
v -1.374006 0.375077 0.896793
v -0.937819 0.215747 0.737463
v -1.374006 0.215747 0.737463
v -0.937819 -0.001910 0.679136
v -1.374006 -0.001910 0.679136
v -0.937819 -0.219567 0.737463
v -1.374006 -0.219567 0.737463
v -0.937819 -0.378898 0.896793
v -1.374006 -0.378898 0.896793
v -0.937819 -0.437224 1.114450
v -1.374006 -0.437224 1.114450
v -0.937819 -0.378898 1.332107
v -1.374006 -0.378898 1.332107
v -0.937819 -0.219567 1.491437
v -1.374006 -0.219567 1.491437
v -0.937819 -0.001910 1.549764
v -1.374006 -0.001910 1.549764
v -0.937819 0.215746 1.491437
v -1.374006 0.215746 1.491437
v -0.937819 0.375077 1.332107
v -1.374006 0.375077 1.332107
v -1.433816 -0.306589 1.114450
v -1.433816 -0.278930 1.002024
v -1.433816 -0.213145 0.903215
v -1.433816 -0.114336 0.837430
v -1.433816 -0.001910 0.811377
v -1.433816 0.110515 0.837430
v -0.882663 -0.002195 1.382670
v -0.882927 0.185689 1.302842
v -0.882419 0.265111 1.114938
v -1.433816 0.302769 1.114450
v -1.433816 0.275109 1.226876
v -1.433816 0.209345 1.325685
v -1.433816 0.110515 1.391470
v -1.433816 -0.001910 1.417523
v -0.883638 -0.278625 1.114938
v -0.883171 -0.191420 0.925753
v -0.881809 -0.002154 0.853587
v -1.433816 -0.114336 1.391469
v -1.433816 -0.213145 1.325685
v -0.883537 -0.193290 1.305992
v -0.883211 0.187173 0.925530
v -1.433816 -0.278930 1.226875
v -1.433816 0.209345 0.903215
v -1.433816 0.275109 1.002025
vt 4.809814 -1.011963
vt 5.312256 -0.532959
vt 5.312256 -1.011963
vt 4.809814 -0.532959
vt 4.307373 -1.011963
vt 4.307373 -0.532959
vt 3.804688 -1.011963
vt 3.804688 -0.532959
vt 3.302002 -1.011963
vt 3.302002 -0.532959
vt 2.801514 -1.011963
vt 2.801514 -0.532959
vt 2.302979 -1.011963
vt 2.303223 -0.532959
vt 1.805908 -1.011963
vt 1.805908 -0.532959
vt 1.309814 -1.011963
vt 1.310059 -0.532959
vt 0.814697 -1.011963
vt 0.814697 -0.532959
vt 0.319824 -1.011963
vt 0.320068 -0.532959
vt -0.174072 -1.011963
vt -0.174072 -0.532959
vt -0.677734 -1.011963
vt -0.677734 -0.532959
vt 0.622070 0.598877
vt 0.492676 0.519775
vt 0.492676 0.582764
vt 0.729981 0.552002
vt 0.735840 0.637207
vt 0.903809 0.640137
vt 0.811768 0.695068
vt 0.967529 0.760742
vt 0.848877 0.760742
vt 0.811768 0.826416
vt 0.093750 0.880127
vt 0.210449 0.761231
vt 0.031250 0.759766
vt 0.297607 0.864014
vt 0.264404 0.968018
vt 0.497070 0.907471
vt 0.497559 1.000244
vt 0.730957 0.968018
vt 0.363037 0.922852
vt 0.492676 1.001953
vt 0.492676 0.938965
vt 0.255127 0.969482
vt 0.249268 0.884277
vt 0.081299 0.881348
vt 0.173584 0.826416
vt 0.136230 0.760742
vt 0.697510 0.661377
vt 0.730957 0.551758
vt 0.497315 0.614990
vt 0.901611 0.639648
vt 0.779785 0.761231
vt 0.964111 0.759766
vt 0.901611 0.880127
vt 0.017578 0.760742
vt 0.081299 0.640137
vt 0.173584 0.695068
vt 0.249268 0.637207
vt 0.497559 0.519531
vt 0.264404 0.551758
vt 0.294434 0.660156
vt 0.093750 0.639648
vt 0.697754 0.864746
vt 0.255127 0.552002
vt 0.363037 0.598877
vt 0.903809 0.881348
vt 0.735840 0.884277
vt 0.729981 0.969482
vt 0.622070 0.922852
vn -0.7480 0.5732 -0.3346
vn -0.5017 0.8650 0.0000
vn -0.7496 0.6619 0.0001
vn -0.5036 0.7484 -0.4316
vn -0.7472 0.3360 -0.5733
vn -0.5036 0.4316 -0.7484
vn -0.7475 -0.0000 -0.6642
vn -0.5025 0.0000 -0.8646
vn -0.7473 -0.3360 -0.5732
vn -0.5036 -0.4316 -0.7484
vn -0.7491 -0.5729 -0.3326
vn -0.5036 -0.7484 -0.4316
vn -0.7528 -0.6583 0.0001
vn -0.5017 -0.8650 -0.0000
vn -0.7498 -0.5719 0.3328
vn -0.5036 -0.7484 0.4316
vn -0.7488 -0.3348 0.5721
vn -0.5044 -0.4304 0.7486
vn -0.7498 -0.0001 0.6616
vn -0.5049 -0.0000 0.8631
vn -0.7479 0.3343 0.5734
vn -0.5044 0.4304 0.7486
vn -0.7479 0.5735 0.3344
vn -0.5036 0.7484 0.4316
vn -0.9118 -0.3819 -0.1513
vn -0.9092 -0.4163 0.0000
vn -0.9139 -0.2871 -0.2871
vn -0.9123 -0.1496 -0.3811
vn -0.9111 -0.0000 -0.4121
vn -0.9123 0.1496 -0.3811
vn -0.9566 -0.0009 -0.2915
vn -0.9579 -0.2028 -0.2033
vn -0.9570 -0.2901 -0.0007
vn -0.9118 0.3819 0.1513
vn -0.9092 0.4163 -0.0000
vn -0.9138 0.2871 0.2871
vn -0.9091 0.1459 0.3903
vn -0.9078 -0.0000 0.4194
vn -0.9576 0.2004 0.2071
vn -0.9548 0.2971 0.0003
vn -0.9580 0.0002 0.2867
vn -0.9091 -0.1459 0.3903
vn -0.9139 -0.2871 0.2871
vn -0.9564 0.2044 -0.2086
vn -0.9581 -0.2010 0.2040
vn -0.9118 -0.3818 0.1513
vn -0.9138 0.2871 -0.2871
vn -0.9118 0.3819 -0.1513
usemtl mat_tire
s 1
f 54/100/52 53/101/53 52/102/54
f 55/103/55 53/101/53 54/100/52
f 56/104/56 55/103/55 54/100/52
f 57/105/57 55/103/55 56/104/56
f 58/106/58 57/105/57 56/104/56
f 59/107/59 57/105/57 58/106/58
f 60/108/60 59/107/59 58/106/58
f 61/109/61 59/107/59 60/108/60
f 62/110/62 61/109/61 60/108/60
f 63/111/63 61/109/61 62/110/62
f 64/112/64 63/111/63 62/110/62
f 65/113/65 63/111/63 64/112/64
f 66/114/66 65/113/65 64/112/64
f 67/115/67 65/113/65 66/114/66
f 68/116/68 67/115/67 66/114/66
f 69/117/69 67/115/67 68/116/68
f 70/118/70 69/117/69 68/116/68
f 71/119/71 69/117/69 70/118/70
f 72/120/72 71/119/71 70/118/70
f 73/121/73 71/119/71 72/120/72
f 74/122/74 73/121/73 72/120/72
f 75/123/75 73/121/73 74/122/74
f 52/124/54 75/123/75 74/122/74
f 53/125/53 75/123/75 52/124/54
f 77/126/76 65/127/65 76/128/77
f 63/129/63 65/127/65 77/126/76
f 78/130/78 63/129/63 77/126/76
f 61/131/61 63/129/63 78/130/78
f 79/132/79 61/131/61 78/130/78
f 59/133/59 61/131/61 79/132/79
f 80/134/80 59/133/59 79/132/79
f 81/135/81 59/133/59 80/134/80
f 72/136/72 82/137/82 70/138/70
f 83/139/83 82/137/82 72/136/72
f 74/140/74 83/139/83 72/136/72
f 84/141/84 83/139/83 74/140/74
f 52/142/54 84/141/84 74/140/74
f 54/143/52 84/141/84 52/142/54
f 86/144/85 53/145/53 85/146/86
f 75/147/75 53/145/53 86/144/85
f 87/148/87 75/147/75 86/144/85
f 73/149/73 75/147/75 87/148/87
f 88/150/88 73/149/73 87/148/87
f 89/151/89 73/149/73 88/150/88
f 91/152/90 62/153/62 90/154/91
f 60/155/60 62/153/62 91/152/90
f 92/156/92 60/155/60 91/152/90
f 58/157/58 60/155/60 92/156/92
f 56/158/56 58/157/58 92/156/92
f 89/151/89 71/159/71 73/149/73
f 69/160/69 71/159/71 89/151/89
f 93/161/93 69/160/69 89/151/89
f 94/162/94 69/160/69 93/161/93
f 64/163/64 90/154/91 62/153/62
f 66/164/66 90/154/91 64/163/64
f 66/164/66 95/165/95 90/154/91
f 68/166/68 95/165/95 66/164/66
f 68/166/68 82/137/82 95/165/95
f 70/138/70 82/137/82 68/166/68
f 54/143/52 96/167/96 84/141/84
f 56/158/56 96/167/96 54/143/52
f 94/162/94 67/168/67 69/160/69
f 97/169/97 67/168/67 94/162/94
f 97/169/97 65/127/65 67/168/67
f 76/128/77 65/127/65 97/169/97
f 81/135/81 57/170/57 59/133/59
f 98/171/98 57/170/57 81/135/81
f 98/171/98 55/172/55 57/170/57
f 99/173/99 55/172/55 98/171/98
f 99/173/99 53/145/53 55/172/55
f 85/146/86 53/145/53 99/173/99
f 96/167/96 56/158/56 92/156/92
